# xmcd
#
# Track frame offsets: 
#        150
#        16035
#        31490
#        47923
#        63275
#        81702
#        97250
#        113036
#        126755
#        144564
#        159104
#        176913
#
# Disc length: 2536 seconds
#
# Revision: 1
# Processed by: cddbd v1.5.2PL0 Copyright (c) Steve Scherf et al.
# Submitted via: ExactAudioCopy v0.99pb5
#
DISCID=a209e60c
DTITLE=Snibb - Snibb
DYEAR=2002
DGENRE=Rock
TTITLE0=Yourself To Blame
TTITLE1=Love Letter
TTITLE2=Make Me Whole Again
TTITLE3=Lucky Man
TTITLE4=The Reason I'm Here
TTITLE5=Stone Cold
TTITLE6=It Isn't Fair
TTITLE7=John In Hands
TTITLE8=Still Be There
TTITLE9=Harm's Already Done
TTITLE10=Milky Way
TTITLE11=One Romance
EXTD=
EXTT0=
EXTT1=
EXTT2=
EXTT3=
EXTT4=
EXTT5=
EXTT6=
EXTT7=
EXTT8=
EXTT9=
EXTT10=
EXTT11=
PLAYORDER=
